<?xml version="1.0" encoding="UTF-8" standalone="no"?>
<!DOCTYPE svg PUBLIC "-//W3C//DTD SVG 1.1//EN" "http://www.w3.org/Graphics/SVG/1.1/DTD/svg11.dtd">
<svg width="100%" height="100%" viewBox="0 0 154 172" version="1.1" xmlns="http://www.w3.org/2000/svg" xmlns:xlink="http://www.w3.org/1999/xlink" xml:space="preserve" xmlns:serif="http://www.serif.com/" style="fill-rule:evenodd;clip-rule:evenodd;stroke-linejoin:round;stroke-miterlimit:2;">
    <g id="ArtBoard1" transform="matrix(1,0,0,0.970506,-40.83,-54.4091)">
        <rect x="40.83" y="56.063" width="153.366" height="176.821" style="fill:none;"/>
        <g id="OBJECTS" transform="matrix(1,0,0,1.03039,0.83,-5.66947)">
            <clipPath id="_clip1">
                <rect x="41.145" y="62.797" width="154.02" height="169.06"/>
            </clipPath>
            <g clip-path="url(#_clip1)">
                <g transform="matrix(1,0,0,1,-1.458,-1.36636)">
                    <g>
                        <g>
                            <path d="M184.906,202.782C178.96,186.802 142.592,179.17 136.223,174.539C128.047,168.593 130.649,148.897 130.649,148.897L117.27,149.249L103.891,148.897C103.891,148.897 106.492,168.593 98.317,174.539C91.949,179.171 55.58,186.803 49.634,202.782C43.688,218.761 41.458,232.884 41.458,232.884L193.08,232.884C193.082,232.884 190.852,218.762 184.906,202.782Z" style="fill:rgb(255,172,157);fill-rule:nonzero;"/>
                            <path d="M101.413,170.869C107.676,170.229 113.971,168.96 119.424,165.91C123.399,163.687 126.978,161.062 130.3,158.107C130.103,153.046 130.649,148.897 130.649,148.897L117.27,149.249L103.891,148.897C103.892,148.896 105.743,162.915 101.413,170.869Z" style="fill:rgb(204,136,127);fill-rule:nonzero;"/>
                        </g>
                        <g>
                            <path d="M185.961,202.561C181.33,190.116 158.395,182.7 145.257,177.818C139.544,184.412 129.399,188.801 117.828,188.801C106.257,188.801 96.112,184.412 90.399,177.818C77.26,182.7 54.325,190.116 49.695,202.561C43.705,218.658 41.459,232.884 41.459,232.884L194.196,232.884C194.197,232.884 191.951,218.658 185.961,202.561Z" style="fill:rgb(111,150,189);fill-rule:nonzero;"/>
                            <path d="M117.779,193.901C132.457,193.901 145.052,188.056 150.452,179.723C148.609,179.048 146.859,178.414 145.257,177.819C139.544,184.413 129.399,188.802 117.828,188.802C106.257,188.802 96.112,184.413 90.399,177.819C88.774,178.423 86.998,179.066 85.127,179.752C90.536,188.069 103.118,193.901 117.779,193.901Z" style="fill:rgb(133,183,224);fill-rule:nonzero;"/>
                        </g>
                    </g>
                    <g>
                        <g>
                            <path d="M94.806,118.191C92.645,111.488 87.529,113.04 87.05,113.201C86.548,113.26 81.259,114.045 82.173,121.028C83.092,128.053 87.168,131.86 90.99,130.742C94.923,130.12 96.979,124.935 94.806,118.191Z" style="fill:rgb(204,136,127);fill-rule:nonzero;"/>
                            <path d="M138.064,118.191C140.225,111.488 145.341,113.04 145.82,113.201C146.322,113.26 151.611,114.045 150.697,121.028C149.778,128.053 145.702,131.86 141.88,130.742C137.947,130.12 135.89,124.935 138.064,118.191Z" style="fill:rgb(204,136,127);fill-rule:nonzero;"/>
                            <path d="M143.525,107.646C140.847,78.259 118.506,79.905 116.399,80.126C114.292,79.905 91.951,78.259 89.273,107.646C86.579,137.209 99.747,156.516 116.399,155.454C133.051,156.516 146.219,137.209 143.525,107.646Z" style="fill:rgb(255,172,157);fill-rule:nonzero;"/>
                        </g>
                        <g>
                            <g>
                                <path d="M119.592,117.68C119.752,118.152 119.873,118.63 120.005,119.106C120.142,119.581 120.252,120.061 120.365,120.54C120.584,121.499 120.772,122.462 120.943,123.427C121.102,124.394 121.265,125.361 121.382,126.334C121.515,127.305 121.615,128.281 121.699,129.258L121.721,129.511L121.565,129.645C120.976,130.149 120.374,130.641 119.766,131.124C119.139,131.588 118.537,132.079 117.885,132.517C118.357,131.889 118.88,131.315 119.378,130.714C119.894,130.132 120.417,129.558 120.952,128.997L120.817,129.384C120.624,128.422 120.446,127.457 120.301,126.488C120.141,125.521 120.026,124.547 119.908,123.574C119.801,122.599 119.712,121.622 119.653,120.641C119.627,120.15 119.598,119.659 119.597,119.164C119.588,118.67 119.571,118.178 119.592,117.68Z" style="fill:rgb(204,136,127);fill-rule:nonzero;"/>
                            </g>
                            <path d="M103.464,136.842L129.977,136.564C129.977,136.565 119.374,146.999 103.464,136.842Z" style="fill:white;fill-rule:nonzero;"/>
                            <g>
                                <path d="M110.263,142.167C110.263,142.167 110.547,142.228 111.033,142.361C111.518,142.474 112.208,142.746 113.043,142.873C113.459,142.946 113.905,143.025 114.369,143.123C114.826,143.249 115.349,143.209 115.861,143.282C116.379,143.328 116.912,143.399 117.456,143.352C117.999,143.33 118.551,143.333 119.099,143.293C119.642,143.207 120.186,143.121 120.721,143.036C121.266,142.988 121.757,142.759 122.259,142.634C122.751,142.476 123.254,142.382 123.674,142.15C124.106,141.948 124.524,141.77 124.913,141.604C125.314,141.458 125.627,141.23 125.929,141.062C126.228,140.885 126.489,140.732 126.703,140.605C127.137,140.353 127.399,140.218 127.399,140.218C127.399,140.218 127.204,140.426 126.837,140.775C126.651,140.949 126.426,141.16 126.167,141.402C125.903,141.64 125.627,141.948 125.239,142.154C124.87,142.39 124.465,142.645 124.028,142.902C123.607,143.195 123.098,143.365 122.578,143.561C122.318,143.659 122.053,143.758 121.785,143.858L121.379,144.008L120.95,144.087C120.375,144.191 119.79,144.296 119.205,144.402C118.614,144.433 118.019,144.419 117.436,144.427C116.85,144.468 116.287,144.333 115.74,144.254C115.196,144.15 114.664,144.118 114.182,143.932C113.695,143.779 113.243,143.62 112.829,143.474C112.404,143.35 112.057,143.162 111.751,142.99C111.442,142.825 111.172,142.68 110.95,142.561C110.51,142.32 110.263,142.167 110.263,142.167Z" style="fill:rgb(204,136,127);fill-rule:nonzero;"/>
                            </g>
                            <g>
                                <path d="M102.5,118.123C102.5,120.336 103.321,122.131 104.335,122.131C105.348,122.131 106.17,120.337 106.17,118.123C106.17,115.91 105.349,114.115 104.335,114.115C103.321,114.115 102.5,115.909 102.5,118.123Z" style="fill:rgb(53,44,56);fill-rule:nonzero;"/>
                                <path d="M127.714,118.123C127.714,120.336 128.535,122.131 129.549,122.131C130.562,122.131 131.384,120.337 131.384,118.123C131.384,115.91 130.562,114.115 129.549,114.115C128.535,114.115 127.714,115.909 127.714,118.123Z" style="fill:rgb(53,44,56);fill-rule:nonzero;"/>
                            </g>
                            <g>
                                <path d="M97.996,111.565C97.996,111.565 98.315,110.604 99.307,109.489C99.568,109.228 99.829,108.909 100.175,108.649C100.503,108.367 100.877,108.098 101.298,107.862C101.698,107.594 102.186,107.429 102.66,107.23C103.168,107.106 103.673,106.925 104.22,106.914C104.49,106.899 104.76,106.879 105.029,106.876C105.299,106.901 105.566,106.942 105.83,106.978C106.367,107.013 106.845,107.259 107.314,107.42C107.782,107.594 108.156,107.906 108.533,108.136C108.92,108.36 109.166,108.714 109.439,108.971C109.703,109.24 109.936,109.488 110.083,109.759C110.249,110.011 110.375,110.245 110.48,110.431C110.685,110.809 110.781,111.031 110.781,111.031C110.781,111.031 110.547,110.925 110.177,110.727C109.994,110.626 109.77,110.51 109.535,110.363C109.307,110.204 109.003,110.098 108.707,109.951C108.396,109.832 108.106,109.619 107.748,109.534C107.397,109.441 107.062,109.261 106.688,109.202C106.313,109.156 105.953,109.011 105.564,109.028C105.373,109.017 105.181,109.011 104.99,108.988L104.409,109.036C104.018,109.021 103.635,109.169 103.244,109.21C102.867,109.343 102.472,109.402 102.109,109.563C101.737,109.692 101.376,109.836 101.036,109.996C100.686,110.133 100.373,110.313 100.06,110.448C99.757,110.608 99.479,110.755 99.233,110.885C98.982,111.023 98.763,111.143 98.583,111.241C98.208,111.448 97.996,111.565 97.996,111.565Z" style="fill:rgb(53,44,56);fill-rule:nonzero;"/>
                            </g>
                            <g>
                                <path d="M123.387,111.565C123.387,111.565 123.706,110.604 124.698,109.489C124.959,109.228 125.22,108.909 125.566,108.649C125.894,108.367 126.268,108.098 126.689,107.862C127.089,107.594 127.577,107.429 128.051,107.23C128.559,107.106 129.064,106.925 129.611,106.914C129.881,106.899 130.151,106.879 130.42,106.876C130.69,106.901 130.957,106.942 131.221,106.978C131.758,107.013 132.236,107.259 132.705,107.42C133.173,107.594 133.547,107.906 133.923,108.136C134.31,108.36 134.556,108.714 134.829,108.971C135.093,109.24 135.326,109.488 135.473,109.759C135.639,110.011 135.765,110.245 135.87,110.431C136.075,110.809 136.171,111.031 136.171,111.031C136.171,111.031 135.937,110.925 135.566,110.727C135.383,110.626 135.159,110.51 134.924,110.363C134.696,110.204 134.392,110.098 134.096,109.951C133.785,109.832 133.495,109.619 133.136,109.534C132.785,109.441 132.45,109.261 132.076,109.202C131.701,109.156 131.341,109.011 130.952,109.028C130.761,109.017 130.569,109.011 130.378,108.988L129.797,109.036C129.406,109.021 129.023,109.169 128.632,109.21C128.255,109.343 127.86,109.402 127.497,109.563C127.125,109.692 126.764,109.836 126.425,109.996C126.075,110.133 125.762,110.313 125.448,110.448C125.145,110.608 124.867,110.755 124.621,110.885C124.37,111.023 124.151,111.143 123.97,111.241C123.6,111.448 123.387,111.565 123.387,111.565Z" style="fill:rgb(53,44,56);fill-rule:nonzero;"/>
                            </g>
                        </g>
                        <g>
                            <path d="M89.36,122.135C89.36,122.135 82.36,93.135 86.36,84.802C90.36,76.469 95.027,79.135 95.027,79.135C95.027,79.135 101.36,61.802 114.694,65.135C128.027,68.468 135.694,74.468 142.694,68.468C142.694,68.468 142.694,73.801 138.694,76.135C138.694,76.135 147.027,76.135 150.361,68.135C150.361,68.135 155.34,85.236 144.34,91.236C144.34,91.236 145.165,112.603 144.361,120.469L141.36,120.136C141.36,120.136 139.693,108.803 138.693,94.469C138.693,94.469 121.36,103.802 100.36,87.469C100.36,87.469 103.36,98.469 91.36,105.469L92.36,120.802L89.36,122.135Z" style="fill:rgb(150,84,80);fill-rule:nonzero;"/>
                            <path d="M132.054,96.568C127.093,96.23 122.127,95.134 118.098,93.587C109.082,90.124 101.336,79.856 100.723,69.907C96.893,74.041 95.026,79.135 95.026,79.135C95.026,79.135 90.359,76.468 86.359,84.802C82.359,93.135 89.359,122.135 89.359,122.135L92.359,120.802L91.359,105.469C103.359,98.469 100.359,87.469 100.359,87.469C113.456,97.654 125.124,97.857 132.054,96.568Z" style="fill:rgb(118,65,59);fill-rule:nonzero;"/>
                        </g>
                    </g>
                </g>
            </g>
        </g>
    </g>
</svg>
