<?xml version="1.0" encoding="UTF-8" standalone="no"?>
<!DOCTYPE svg PUBLIC "-//W3C//DTD SVG 1.1//EN" "http://www.w3.org/Graphics/SVG/1.1/DTD/svg11.dtd">
<svg width="100%" height="100%" viewBox="0 0 800 800" version="1.1" xmlns="http://www.w3.org/2000/svg" xmlns:xlink="http://www.w3.org/1999/xlink" xml:space="preserve" xmlns:serif="http://www.serif.com/" style="fill-rule:evenodd;clip-rule:evenodd;stroke-linejoin:round;stroke-miterlimit:2;">
    <g>
        <g>
            <path d="M557.375,299.945C533.921,215.803 432.741,192.743 357.349,203.232C286.507,213.087 211.571,256.81 201.3,334.712C196.749,369.224 196.812,409.321 220.186,437.95C252.623,477.683 308.045,500.332 313.287,556.009C310.848,556.113 309.038,557.484 308.179,559.52C279.798,566.795 276.408,601.537 299.27,623.842C285.4,637.821 276.873,656.787 294.301,672.991C296.178,674.742 298.382,676.117 300.515,677.579C264.612,713.369 304.454,733.931 343.613,742.622C346.638,771.422 369.488,790.287 397.982,791.791C424.646,793.203 455.273,771.363 458.03,743.686C469.377,740.82 479.589,736.344 486.705,728.764C499.037,715.623 503.994,682.628 490.643,667.145C508.972,653.271 505.75,630.224 488.804,617.737C499.364,610.806 503.898,601.646 493.69,589.888C484.886,579.747 471.096,574.098 457.167,570.826C457.179,570.352 457.313,569.933 457.251,569.435C448.874,507.962 512.102,457.565 543.677,411.634C567.566,376.867 568.303,339.154 557.375,299.945ZM401.682,777.745C378.183,779.735 361.384,764.487 353.146,744.499C364.342,746.464 374.99,747.503 383.14,747.566C398.737,747.696 420.795,749.029 441.432,746.695C433.441,763.226 424.206,775.847 401.682,777.745ZM383.14,732.594C354.277,732.347 277.564,725.936 309.788,682.809C333.652,693.775 366.312,693.284 389.589,692.631C417.555,691.843 451.191,688.654 477.41,675.249C518.924,730.382 413.373,732.846 383.14,732.594ZM474.347,659.669C474.272,659.703 474.213,659.749 474.138,659.783C472.659,660.608 471.343,661.429 469.566,662.288C446.812,673.305 419.118,676.138 394.278,677.634C369.555,679.121 343.826,678.027 320.075,670.56C294.493,662.531 297.108,647.103 308.849,630.446C319.858,635.764 333.296,636.279 345.109,637.071C371.843,638.86 398.95,637.482 425.63,635.508C433.965,634.896 456.836,631.489 474.938,624.533C488.456,640.88 492.496,649.382 474.347,659.669ZM477.146,596.186C492.542,604.973 442.287,617.825 437.338,618.348C410.96,621.181 384.255,621.914 357.747,621.474C345.792,621.278 333.736,620.607 322.003,618.235C294.305,612.624 290.626,574.702 323.113,572.887C324.76,572.791 326.013,572.217 327.086,571.471C360.533,576.923 394.84,579.181 428.413,582.592C445.346,584.31 462.229,587.671 477.146,596.186ZM391.454,563.128C385.432,562.571 379.415,561.976 373.393,561.418C373.414,561.326 373.414,561.205 373.435,561.113C373.641,560.463 373.737,559.814 373.699,559.151C376.938,539.511 369.027,507.933 362.478,489.617C355.442,469.926 344.631,451.439 334.721,433.114C332.303,428.651 330.078,423.351 327.815,417.857C344.363,395.799 374.831,389.618 408.571,384.795C409.753,384.628 411.044,384.452 412.401,384.267C393.126,441.038 390.637,503.734 391.454,563.128ZM441.47,567.997C439.437,567.729 437.409,567.473 435.473,567.285C425.437,566.271 415.389,565.378 405.353,564.44C407.155,506.713 409.443,448.392 426.045,392.652C426.523,391.047 428.01,387.004 430.147,381.518C450.835,377.605 474.452,369.618 473.97,348.939C473.815,342.188 465.585,340.604 461.965,345.687C455.717,354.457 447.035,360.005 437.263,364.007C447.994,338.421 463.23,305.602 468.891,306.767C475.977,308.229 479.325,299.551 473.66,295.457C451.359,279.362 427.545,347.321 422.575,358.279C420.862,362.067 419.512,365.997 417.966,369.853C398.422,373.997 377.073,375.132 359.859,380.354C343.646,385.273 331.042,393.57 322.032,404.335C318.429,396.419 314.368,389.028 309.084,384.033C305.761,380.89 301.122,382.579 299.593,386.539C295.419,397.316 304.328,409.778 309.067,419.248C309.704,420.518 310.421,421.754 311.066,423.024C306.926,434.258 305.547,447.064 307.471,461.248C308.062,465.577 314.695,464.295 314.825,460.251C315.114,451.405 316.434,443.783 318.462,436.999C326.248,451.506 334.193,465.929 341.379,480.758C349.102,496.694 351.599,511 353.975,528.08C355.266,537.345 355.367,551.177 360.412,560.195C349.022,559.139 337.633,558.1 326.256,556.968C326.646,510.254 296.396,486.445 261.427,457.452C161.307,374.437 236.365,245.705 343.303,221.317C400.002,208.386 465.472,218.883 510.732,255.687C581.666,313.371 541.024,392.979 496.619,446.947C468.761,480.825 438.017,521.707 441.47,567.997Z" style="fill:rgb(33,32,43);fill-rule:nonzero;stroke:rgb(33,32,43);stroke-width:7px;"/>
            <path d="M211.822,490.363C201.92,502.016 194.114,515.61 185.1,527.971C176.435,539.851 163,550.037 156.162,562.935C154.196,566.635 157.473,572.259 162.037,570.574C174.754,565.881 182.498,552.061 190.074,541.477C200.34,527.129 211.332,511.671 218.451,495.479C220.224,491.448 215.183,486.411 211.822,490.363Z" style="fill:rgb(33,32,43);fill-rule:nonzero;stroke:rgb(33,32,43);stroke-width:7px;"/>
            <path d="M130.119,353.581C114.744,343.554 91.756,345.632 74.052,345.678C50.515,345.741 25.942,348.172 3.059,353.804C-1.613,354.952 -0.7,362.628 4.207,362.281C24.811,360.822 45.197,358.853 65.885,358.757C86.862,358.66 108.417,365.633 128.912,362.859C133.63,362.218 133.358,355.693 130.119,353.581Z" style="fill:rgb(33,32,43);fill-rule:nonzero;stroke:rgb(33,32,43);stroke-width:7px;"/>
            <path d="M231.278,174.859C223.132,163.08 208.554,156.43 196.821,148.548C181.844,138.491 166.822,127.885 150.827,119.517C146.612,117.313 141.533,123.079 145.522,126.393C158.253,136.978 172.336,145.967 185.859,155.504C198.459,164.4 210.745,177.633 225.474,182.406C229.614,183.751 233.846,178.567 231.278,174.859Z" style="fill:rgb(33,32,43);fill-rule:nonzero;stroke:rgb(33,32,43);stroke-width:7px;"/>
            <path d="M379.49,13.543C378.485,8.029 372.614,6.633 368.499,9.839C361.656,15.173 363.735,27.329 363.718,34.784C363.663,64.263 362.871,95.213 367.087,124.445C367.682,128.572 374.839,128.593 375.409,124.445C378.095,104.884 376.628,84.477 376.901,64.779C377.056,53.586 377.269,42.377 377.957,31.206C378.191,27.417 379.243,23.516 379.281,19.753C379.298,18.136 379.26,17.151 379.193,16.476C379.511,15.534 379.671,14.528 379.49,13.543Z" style="fill:rgb(33,32,43);fill-rule:nonzero;stroke:rgb(33,32,43);stroke-width:7px;"/>
            <path d="M613.144,64.925C601.906,52.245 586.288,78.665 581.473,85.613C574.174,96.152 567.406,107.059 560.316,117.74C554.957,125.824 544.506,135.114 541.904,144.362C541.183,146.922 542.281,150.505 544.879,151.67C545.072,151.758 545.265,151.846 545.457,151.929C548.11,153.119 551.056,153.145 553.235,150.928C555.464,148.657 556.57,145.908 559.667,144.58C562.039,143.557 561.896,141.332 560.723,139.664C562.973,137.322 565.278,135.03 566.728,133.073C572.246,125.627 577.388,117.891 582.596,110.227C587.654,102.785 592.733,95.356 598.088,88.119C600.296,85.131 602.689,82.298 605.195,79.558C606.565,78.066 611.774,74.99 608.92,75.104C614.275,74.89 616.622,68.847 613.144,64.925Z" style="fill:rgb(33,32,43);fill-rule:nonzero;stroke:rgb(33,32,43);stroke-width:7px;"/>
            <path d="M792.449,314.046C759.194,315.169 725.982,315.981 692.769,318.068C681.505,318.776 647.308,316.019 641.483,329.91C640.025,333.388 645.267,336.049 647.635,333.493C648.33,332.743 667.975,333.057 670.238,332.91C684.091,332.022 697.969,331.49 711.839,331.004C738.632,330.069 765.648,328.946 792.453,329.68C802.72,329.96 802.309,312.948 792.449,314.046Z" style="fill:rgb(33,32,43);fill-rule:nonzero;stroke:rgb(33,32,43);stroke-width:7px;"/>
            <path d="M658.119,507.342C653.853,501.886 645.271,499.757 639.279,496.69C629.738,491.804 620.406,486.491 611.057,481.253C601.093,475.688 581.13,459.509 569.045,463.452C566.79,464.19 566.397,466.595 567.758,468.338C576.445,479.418 596.249,486.834 608.275,494.239C619.857,501.362 641.014,520.056 655.588,516.938C660.252,515.936 660.558,510.455 658.119,507.342Z" style="fill:rgb(33,32,43);fill-rule:nonzero;stroke:rgb(33,32,43);stroke-width:7px;"/>
        </g>
    </g>
</svg>
