<?xml version="1.0" encoding="UTF-8" standalone="no"?>
<!DOCTYPE svg PUBLIC "-//W3C//DTD SVG 1.1//EN" "http://www.w3.org/Graphics/SVG/1.1/DTD/svg11.dtd">
<svg width="100%" height="100%" viewBox="0 0 673 590" version="1.1" xmlns="http://www.w3.org/2000/svg" xmlns:xlink="http://www.w3.org/1999/xlink" xml:space="preserve" xmlns:serif="http://www.serif.com/" style="fill-rule:evenodd;clip-rule:evenodd;stroke-linecap:round;stroke-linejoin:round;">
    <g id="ArtBoard1" transform="matrix(1,0,0,1,-58.9309,-108.475)">
        <rect x="58.931" y="108.475" width="672.751" height="589.309" style="fill:none;"/>
        <g transform="matrix(0,1,-1,0,728.64,126.939)">
            <g transform="matrix(0,-1,1,0,19.0476,628.571)">
                <g transform="matrix(0,1,1,0,419.048,-419.048)">
                    <path d="M609.524,0L609.524,190.476L419.048,190.476" style="fill:none;stroke:rgb(33,32,43);stroke-width:25px;"/>
                </g>
                <path d="M609.524,190.476C501.46,63.492 393.524,0 285.714,0C177.905,0 82.667,38.095 0,114.286" style="fill:none;stroke:rgb(33,32,43);stroke-width:25px;"/>
            </g>
            <g transform="matrix(0,1,-1,0,533.333,38.0952)">
                <g transform="matrix(0,1,1,0,419.048,-419.048)">
                    <path d="M609.524,0L609.524,190.476L419.048,190.476" style="fill:none;stroke:rgb(33,32,43);stroke-width:25px;"/>
                </g>
                <path d="M609.524,190.476C501.46,63.492 393.524,0 285.714,0C177.905,0 82.667,38.095 0,114.286" style="fill:none;stroke:rgb(33,32,43);stroke-width:25px;"/>
            </g>
        </g>
    </g>
</svg>
